# xmcd
#
# Track frame offsets:
#	150
#	16665
#	26072
#
# Disc length: 545 seconds
#
# Revision: 1
# Processed by: cddbd v1.5.2PL0 Copyright (c) Steve Scherf et al.
# Submitted via: EasyCDDAExtractor 2011.0.0.0
#
DISCID=16021f03
DTITLE=Rahzel - All I Know
DYEAR=1999
DGENRE=Hip-Hop
TTITLE0=All I Know (Radio Edit)
TTITLE1=If Your Mother Onley Knew (Live)
TTITLE2=? vs Rahzel
EXTD=
EXTT0=
EXTT1=
EXTT2=
PLAYORDER=
